<svg width="49" height="48" viewBox="0 0 49 48" fill="none" xmlns="http://www.w3.org/2000/svg">
<g clip-path="url(#clip0_29:54)">
<path d="M36.3721 15.8874H34.3721V11.9468C34.3721 6.50872 29.8921 2.09521 24.3721 2.09521C18.8521 2.09521 14.3721 6.50872 14.3721 11.9468V15.8874H12.3721C10.1721 15.8874 8.37207 17.6607 8.37207 19.828V39.5312C8.37207 41.6985 10.1721 43.4718 12.3721 43.4718H36.3721C38.5721 43.4718 40.3721 41.6985 40.3721 39.5312V19.828C40.3721 17.6607 38.5721 15.8874 36.3721 15.8874ZM18.3721 11.9468C18.3721 8.67606 21.0521 6.03584 24.3721 6.03584C27.6921 6.03584 30.3721 8.67606 30.3721 11.9468V15.8874H18.3721V11.9468ZM36.3721 39.5312H12.3721V19.828H36.3721V39.5312ZM24.3721 33.6202C26.5721 33.6202 28.3721 31.8469 28.3721 29.6796C28.3721 27.5122 26.5721 25.739 24.3721 25.739C22.1721 25.739 20.3721 27.5122 20.3721 29.6796C20.3721 31.8469 22.1721 33.6202 24.3721 33.6202Z" fill="#474448"/>
</g>
<defs>
<clipPath id="clip0_29:54">
<rect width="48" height="47.2875" fill="white" transform="translate(0.371094 0.125)"/>
</clipPath>
</defs>
</svg>
